HIERARCHY
ROOT Hips
{
	OFFSET 0.00000 0.00000 0.00000
	CHANNELS 6 Xposition Yposition Zposition Yrotation Zrotation Xrotation 
	JOINT Lumbar
	{
		OFFSET 0 0 0
		CHANNELS 3 Zrotation Xrotation Yrotation
		JOINT Neck
		{
			OFFSET 0.00 0.2701 0.00
			CHANNELS 3 Zrotation Xrotation Yrotation
			End Site
			{
				OFFSET 0.00 0.1379 0.00
			}
		}
		JOINT RightShoulder
		{
			OFFSET 0.0119 0.2289 0.1181
			CHANNELS 3 Zrotation Xrotation Yrotation
			JOINT RightElbow
			{
				OFFSET 0.00 -0.1475 0.00
				CHANNELS 2 Zrotation Yrotation
				JOINT RightWrist
				{
					OFFSET 0.00 -0.1605 0.00
					CHANNELS 2 Zrotation Xrotation
					End Site
					{
						OFFSET 0.0040 -0.1068 0.0006
					}
				}
			}
		}
		JOINT LeftShoulder
		{
			OFFSET 0.0119 0.2289 -0.1181
			CHANNELS 3 Zrotation Xrotation Yrotation
			JOINT LeftElbow
			{
				OFFSET 0.00 -0.1475 0.00
				CHANNELS 2 Zrotation Yrotation
				JOINT LeftWrist
				{
					OFFSET 0.00 -0.1605 0.00
					CHANNELS 2 Zrotation Xrotation
					End Site
					{
						OFFSET 0.0040 -0.1068 -0.0006
					}
				}
			}
		}
	}
	JOINT RightHip
	{
		OFFSET 0.0316 -0.0424 0.0458
		CHANNELS 3 Zrotation Xrotation Yrotation
		JOINT RightKnee
		{
			OFFSET 0.00 -0.2438 0.00
			CHANNELS 1 Zrotation
			JOINT RightAnkle
			{
				OFFSET 0.00 -0.2449 0.00
				CHANNELS 3 Zrotation Xrotation Yrotation
				End Site
				{
					OFFSET 0.1237 -0.0542 0.0051
				}
			}
		}
	}
	JOINT LeftHip
	{
		OFFSET 0.0316 -0.0424 -0.0458
		CHANNELS 3 Zrotation Xrotation Yrotation
		JOINT LeftKnee
		{
			OFFSET 0.00 -0.2438 0.00
			CHANNELS 1 Zrotation
			JOINT LeftAnkle
			{
				OFFSET 0.00 -0.2449 0.00
				CHANNELS 3 Zrotation Xrotation Yrotation
				End Site
				{
					OFFSET 0.1237 -0.0542 -0.0051
				}
			}
		}
	}
}
MOTION
Frames: 22
Frame Time: 0.02
0.00132 0.0004 -0.0008 30.82845 -29.219 -6.45279 49.19552 1.76572 -3.5554 -2.93751 -2.30266 -0.11608 -43.94542 -17.42036 4.23069 33.51543 58.48049 -5.02556 -3.4238 -48.0713 -8.40775 48.61467 42.67574 -162.40812 31.57062 -9.93659 42.42998 0.64408 -5.45825 -19.31225 -6.32271 -3.67306 -2.61465 44.86772 4.7696 11.07366 -24.71232 -6.40015 2.11911 1.69705
0.00143 0.00041 -0.0003 31.0814 -29.195 -6.41764 49.12323 1.79845 -3.50412 -2.94486 -2.36422 -0.14915 -43.6423 -16.47671 0.61996 33.45699 65.59076 -2.86914 -2.4445 -48.1666 -6.54277 43.9767 42.62675 -156.39868 29.64259 -9.07711 42.38773 0.61507 -5.68125 -19.32089 -6.32323 -3.68466 -2.61336 44.87631 4.63855 10.47525 -24.70065 -6.40342 2.17532 1.72858
0.00155 0.00043 0.00019 31.33392 -29.17107 -6.38255 49.05096 1.83108 -3.45307 -2.95164 -2.42568 -0.18213 -43.33858 -15.53684 -2.97891 33.39871 72.67931 -0.71914 -1.46823 -48.25847 -4.68452 39.35697 42.57754 -150.41572 27.72351 -8.22134 42.34566 0.58613 -5.90368 -19.32954 -6.32375 -3.69625 -2.6121 44.88496 4.50802 9.87925 -24.68903 -6.4067 2.23125 1.75995
0.00167 0.00045 0.00068 31.58613 -29.14714 -6.3475 48.97888 1.86371 -3.40195 -2.95891 -2.48706 -0.21509 -43.03623 -14.59612 -6.5787 33.34045 79.76799 1.43074 -0.49191 -48.35308 -2.82566 34.73442 42.52866 -144.42659 25.80206 -7.36475 42.30353 0.5572 -6.12601 -19.33816 -6.32427 -3.70782 -2.61083 44.89352 4.37741 9.28283 -24.6774 -6.40997 2.28727 1.79137
0.00179 0.00046 0.00117 31.83868 -29.12314 -6.31242 48.9068 1.89644 -3.35061 -2.96686 -2.54853 -0.24816 -42.73483 -13.65159 -10.18979 33.28204 86.87754 3.58676 0.48734 -48.45196 -0.95912 30.0908 42.48007 -138.4066 23.8701 -6.50382 42.26121 0.5282 -6.34886 -19.34677 -6.32479 -3.71939 -2.60952 44.902 4.2462 8.68364 -24.66573 -6.41323 2.34361 1.82296
0.0019 0.00048 0.00167 32.09112 -29.09936 -6.27729 48.83413 1.92885 -3.30017 -2.97115 -2.60996 -0.28092 -42.42614 -12.72175 -13.76232 33.22404 93.92111 5.7239 1.45721 -48.52893 0.88194 25.52074 42.42954 -132.50098 21.97795 -5.65882 42.21969 0.49941 -6.57039 -19.35548 -6.32533 -3.73103 -2.60836 44.91104 4.11707 8.09431 -24.65421 -6.41653 2.3987 1.85388
0.00202 0.00049 0.00215 32.34344 -29.07517 -6.2423 48.76284 1.96187 -3.2479 -2.98301 -2.67136 -0.31426 -42.13304 -11.76262 -17.41044 33.16528 101.0913 7.89702 2.44516 -48.65068 2.77056 20.8116 42.38313 -126.3759 20.00905 -4.78334 42.17657 0.47022 -6.79434 -19.36398 -6.32582 -3.7425 -2.6069 44.91887 3.98401 7.48621 -24.64239 -6.41975 2.4562 1.8861
0.00214 0.00051 0.00265 32.59597 -29.05135 -6.20718 48.69007 1.99434 -3.19745 -2.98749 -2.73285 -0.34708 -41.82449 -10.8319 -20.98533 33.1072 108.14176 10.03632 3.41593 -48.72974 4.61839 16.2236 42.33264 -120.44558 18.10865 -3.93479 42.13498 0.44141 -7.01606 -19.37269 -6.32636 -3.75416 -2.60573 44.92794 3.8544 6.89466 -24.63087 -6.42304 2.51157 1.91717
0.00225 0.00052 0.00315 32.84852 -29.02799 -6.17188 48.61626 2.02612 -3.14868 -2.98447 -2.79426 -0.37922 -41.50094 -9.93012 -24.48606 33.05004 115.06064 12.13778 4.3681 -48.76165 6.40478 11.81072 42.27818 -114.7825 16.30074 -3.12369 42.09502 0.41299 -7.23515 -19.38161 -6.32693 -3.76592 -2.60487 44.93807 3.72967 6.32621 -24.61961 -6.42645 2.56399 1.94662
0.0024 0.00055 0.00361 33.10025 -29.00202 -6.13754 48.55072 2.06182 -3.08863 -3.02916 -2.85554 -0.41514 -41.27532 -8.84442 -28.45975 32.98784 122.78121 14.46754 5.43453 -49.07992 8.50991 6.47149 42.2496 -107.6695 13.987 -2.11072 42.04496 0.38212 -7.46965 -19.38918 -6.32725 -3.77673 -2.60208 44.94074 3.57882 5.63346 -24.60655 -6.42925 2.63234 1.98476
0.00246 0.00054 0.00415 33.35411 -28.98152 -6.10126 48.46633 2.08924 -3.05339 -2.97032 -2.91749 -0.44319 -40.83587 -8.15782 -31.4058 32.93612 128.78131 16.30871 6.25518 -48.7847 9.96472 3.0347 42.16452 -103.55913 12.72345 -1.51491 42.0167 0.35652 -7.67145 -19.39968 -6.32816 -3.78976 -2.60346 44.95998 3.48182 5.19745 -24.59745 -6.43332 2.66776 2.00495
0.00231 0.00045 0.00486 33.61063 -28.97657 -6.05908 48.34124 2.09402 -3.07843 -2.64797 -2.97792 -0.44853 -39.85967 -8.48336 -31.75904 32.91382 130.26899 16.85682 6.43622 -46.8624 9.43088 5.30854 41.93827 -108.24366 14.51229 -2.14913 42.04488 0.34481 -7.78484 -19.41768 -6.32996 -3.80718 -2.61562 45.01867 3.54463 5.519 -24.5981 -6.44111 2.60621 1.97228
0.00206 0.00034 0.00566 33.86982 -28.97708 -6.01512 48.19524 2.0906 -3.12956 -2.21786 -3.03957 -0.44618 -38.65758 -9.22282 -31.04513 32.90141 130.00089 16.90801 6.36571 -44.31206 8.27843 9.41003 41.65267 -115.84697 17.32519 -3.18772 42.09571 0.33848 -7.86557 -19.43868 -6.33246 -3.82709 -2.63206 45.09529 3.65943 6.08909 -24.60299 -6.45017 2.51275 1.92221
0.00184 0.00023 0.00643 34.12995 -28.97465 -5.97231 48.05156 2.09075 -3.17419 -1.82357 -3.10297 -0.4481 -37.52864 -9.82989 -30.6625 32.88463 130.38666 17.15227 6.38539 -42.01416 7.54676 12.34458 41.3852 -121.74339 19.55668 -3.98397 42.13822 0.33013 -7.95985 -19.45872 -6.33512 -3.84709 -2.64702 45.16739 3.74235 6.51008 -24.60656 -6.45847 2.43832 1.88251
0.00171 0.00013 0.00714 34.38127 -28.97388 -5.92785 47.93796 2.09103 -3.19739 -1.48446 -3.15697 -0.44679 -36.53164 -10.2117 -30.89839 32.86937 131.33399 17.52349 6.49944 -39.86039 6.23846 16.66903 41.15509 -129.22434 22.27544 -5.02305 42.1719 0.32014 -8.05781 -19.47725 -6.3358 -3.86222 -2.66021 45.22345 3.85957 7.08182 -24.60727 -6.4674 2.34504 1.83254
0.00136 1e-05 0.00799 34.65123 -28.97131 -5.88667 47.75701 2.08975 -3.27001 -1.00506 -3.23045 -0.45034 -35.19645 -11.14936 -29.62838 32.85076 130.74945 17.52545 6.36606 -37.24983 5.9668 18.57406 40.83288 -134.13119 24.22781 -5.65876 42.23002 0.31463 -8.14247 -19.49939 -6.3407 -3.8877 -2.67789 45.31814 3.91851 7.40147 -24.61534 -6.47551 2.28304 1.79962
0.00048 -0.00016 0.00921 34.97479 -28.95904 -5.85299 47.39245 2.08066 -3.48425 -0.1632 -3.36059 -0.46961 -33.06627 -13.61877 -24.15383 32.84101 125.88573 16.51305 5.53346 -33.59863 8.86269 12.97897 40.27098 -130.90468 23.75611 -5.02415 42.34396 0.32226 -8.17895 -19.53323 -6.35784 -3.9446 -2.70866 45.50659 3.79661 6.93772 -24.6398 -6.4796 2.31892 1.82001
-0.00062 -0.00035 0.01057 35.3165 -28.94512 -5.82314 46.96104 2.07142 -3.74497 0.81586 -3.50957 -0.49396 -30.58739 -16.61561 -17.25318 32.82303 119.61572 15.16335 4.4728 -29.49663 12.7935 4.95425 39.61714 -125.04157 22.48594 -3.9806 42.4827 0.33398 -8.20582 -19.57034 -6.37917 -4.0113 -2.74356 45.7348 3.61574 6.21674 -24.67229 -6.48315 2.38663 1.85774
-0.00164 -0.00054 0.01188 35.64805 -28.93453 -5.7927 46.56241 2.06568 -3.97711 1.73107 -3.64799 -0.51573 -28.21416 -19.30548 -11.21395 32.79622 114.32343 14.05053 3.57043 -25.55786 16.15147 -1.71405 39.00703 -120.59187 21.62137 -3.1614 42.61423 0.34222 -8.25111 -19.6041 -6.39789 -4.07111 -2.77535 45.95047 3.4664 5.63055 -24.70274 -6.4878 2.43747 1.88628
-0.00258 -0.00072 0.01312 35.98772 -28.91442 -5.75691 46.15416 2.04468 -4.24248 2.65619 -3.7954 -0.53844 -26.05848 -22.29061 -4.2581 32.82564 107.60269 12.58683 2.43805 -21.77486 19.92557 -9.38127 38.392 -115.34583 20.62126 -2.19228 42.72995 0.35679 -8.24 -19.64503 -6.4191 -4.14085 -2.81221 46.14376 3.29834 4.9767 -24.72566 -6.48861 2.49767 1.91991
-0.00373 -0.00091 0.01453 36.3148 -28.91221 -5.73377 45.74877 2.05617 -4.44826 3.59206 -3.92793 -0.56044 -23.36676 -24.7847 1.14001 32.73234 103.46775 11.75602 1.72199 -17.56612 23.08057 -15.57149 37.75941 -111.08149 19.68909 -1.43488 42.88349 0.35995 -8.3394 -19.67276 -6.43676 -4.19275 -2.83976 46.39247 3.15528 4.40046 -24.76726 -6.49763 2.54593 1.94708
-0.00536 -0.00112 0.01636 36.60194 -28.97239 -5.73975 45.38188 2.15191 -4.48745 4.52051 -4.01984 -0.57962 -19.30917 -25.75522 1.65134 32.33558 107.51417 12.97168 2.31669 -12.31917 24.3305 -17.07932 37.16367 -110.26806 19.23559 -1.34318 43.14135 0.32299 -8.7915 -19.65448 -6.43775 -4.18802 -2.83767 46.78784 3.08947 4.09122 -24.84861 -6.52616 2.55742 1.95416
